<?xml version="1.0" encoding="UTF-8"?>
<!DOCTYPE svg PUBLIC "-//W3C//DTD SVG 1.1//EN" "http://www.w3.org/Graphics/SVG/1.1/DTD/svg11.dtd">
<!-- Creator: CorelDRAW 2019 (64-Bit) -->
<svg xmlns="http://www.w3.org/2000/svg" xml:space="preserve" width="113px" height="25px" version="1.1" style="shape-rendering:geometricPrecision; text-rendering:geometricPrecision; image-rendering:optimizeQuality; fill-rule:evenodd; clip-rule:evenodd"
viewBox="0 0 44.07 9.87"
 xmlns:xlink="http://www.w3.org/1999/xlink">
 <defs>
  <style type="text/css">
   <![CDATA[
    .fil0 {fill:#B92C25;fill-rule:nonzero}
   ]]>
  </style>
 </defs>
 <g id="Слой_x0020_1">
  <metadata id="CorelCorpID_0Corel-Layer"/>
  <g>
   <path class="fil0" d="M44.07 4.94l-11.51 4.93 0 0 0.15 -0.31 0.14 -0.3 0.13 -0.31 0.12 -0.31 0.11 -0.31 0.1 -0.31 0.09 -0.31 0.08 -0.31 0.07 -0.3 0.07 -0.31 0.05 -0.31 0.04 -0.31 0.04 -0.31 0.02 -0.31 0.02 -0.31 0 -0.3 0 -0.31 -0.02 -0.31 -0.02 -0.31 -0.04 -0.31 -0.04 -0.31 -0.05 -0.31 -0.07 -0.3 -0.07 -0.31 -0.08 -0.31 -0.09 -0.31 -0.1 -0.31 -0.11 -0.31 -0.12 -0.3 -0.13 -0.31 -0.14 -0.31 -0.15 -0.31 11.51 4.94zm-44.07 -0.47l38.29 0 0 0.93 -38.29 0 0 -0.93z"/>
  </g>
 </g>
</svg>
