<?xml version="1.0" encoding="UTF-8"?>
<!DOCTYPE svg PUBLIC "-//W3C//DTD SVG 1.1//EN" "http://www.w3.org/Graphics/SVG/1.1/DTD/svg11.dtd">
<!-- Creator: CorelDRAW 2019 (64-Bit) -->
<svg xmlns="http://www.w3.org/2000/svg" xml:space="preserve" width="113px" height="25px" version="1.1" style="shape-rendering:geometricPrecision; text-rendering:geometricPrecision; image-rendering:optimizeQuality; fill-rule:evenodd; clip-rule:evenodd"
viewBox="0 0 11.37 2.55"
 xmlns:xlink="http://www.w3.org/1999/xlink">
 <defs>
  <style type="text/css">
   <![CDATA[
    .fil0 {fill:#B92C25;fill-rule:nonzero}
   ]]>
  </style>
 </defs>
 <g id="Слой_x0020_1">
  <metadata id="CorelCorpID_0Corel-Layer"/>
  <g>
   <path class="fil0" d="M0 1.27l2.97 -1.27 0 0 -0.04 0.08 -0.03 0.08 -0.04 0.08 -0.03 0.08 -0.03 0.08 -0.02 0.08 -0.03 0.08 -0.02 0.08 -0.02 0.08 -0.01 0.08 -0.02 0.08 -0.01 0.07 -0.01 0.08 0 0.08 -0.01 0.08 0 0.08 0 0.08 0.01 0.08 0 0.08 0.01 0.08 0.01 0.08 0.02 0.08 0.01 0.08 0.02 0.08 0.02 0.08 0.03 0.08 0.02 0.08 0.03 0.08 0.03 0.08 0.04 0.08 0.03 0.08 0.04 0.08 -2.97 -1.28zm11.37 0.12l-9.88 0 0 -0.24 9.88 0 0 0.24z"/>
  </g>
 </g>
</svg>
