<?xml version="1.0" encoding="UTF-8"?>
<!DOCTYPE svg PUBLIC "-//W3C//DTD SVG 1.1//EN" "http://www.w3.org/Graphics/SVG/1.1/DTD/svg11.dtd">
<!-- Creator: CorelDRAW 2019 (64-Bit) -->
<svg xmlns="http://www.w3.org/2000/svg" xml:space="preserve" width="136px" height="158px" version="1.1" style="shape-rendering:geometricPrecision; text-rendering:geometricPrecision; image-rendering:optimizeQuality; fill-rule:evenodd; clip-rule:evenodd"
viewBox="0 0 15.29 17.86"
 xmlns:xlink="http://www.w3.org/1999/xlink">
 <defs>
  <style type="text/css">
   <![CDATA[
    .str0 {stroke:white;stroke-width:0.27;stroke-miterlimit:22.9256}
    .fil4 {fill:black}
    .fil1 {fill:gray}
    .fil0 {fill:#B92C25}
    .fil3 {fill:#E6E6E6}
    .fil2 {fill:white}
    .fil5 {fill:black;fill-rule:nonzero}
   ]]>
  </style>
 </defs>
 <g id="Слой_x0020_1">
  <metadata id="CorelCorpID_0Corel-Layer"/>
  <polygon class="fil0 str0" points="0.13,0.13 15.15,0.13 15.15,12.27 7.99,17.69 0.13,12.27 "/>
  <g id="_2374462482240">
   <g>
    <path class="fil1" d="M9.03 5.07c-0.23,-0.39 -0.74,-0.84 -1.56,-0.84 -0.81,0 -1.36,0.47 -1.53,0.86l0.32 0c0.05,-0.05 0.63,-0.61 1.28,-0.61 0.65,0 1.04,0.14 1.49,0.59z"/>
    <path class="fil2" d="M7.47 3.36l-0.4 0 0 0.47 -0.41 0.1 -0.18 -0.36 -0.64 0.36 0.2 0.37 -0.26 0.28 -0.33 -0.22 -0.35 0.61 -1.69 0.12 2.41 0c0,0 0.49,-0.94 1.65,-0.94 1.17,0 1.66,0.94 1.66,0.94l2.4 0 -1.69 -0.12 -0.35 -0.61 -0.33 0.22 -0.25 -0.28 0.2 -0.37 -0.64 -0.36 -0.18 0.36 -0.41 -0.1 0 -0.47 -0.41 0z"/>
    <path class="fil3" d="M6.4 5.1c0.35,-0.38 0.82,-0.52 1.23,-0.52 0.42,0 0.93,0.16 1.3,0.51l-0.45 0c-0.23,-0.22 -0.66,-0.31 -0.99,-0.31 -0.33,0 -0.65,-0.01 -1.09,0.32z"/>
    <path class="fil1" d="M5.89 6.81c0.23,0.39 0.74,0.85 1.55,0.85 0.82,0 1.36,-0.48 1.54,-0.87l-0.32 0c-0.05,0.05 -0.63,0.61 -1.28,0.61 -0.66,0 -1.04,-0.14 -1.49,-0.59z"/>
    <path class="fil4" d="M7.45 8.52l0.4 0 0 -0.47 0.41 -0.1 0.17 0.37 0.65 -0.37 -0.2 -0.36 0.25 -0.29 0.33 0.22 0.35 -0.6 1.69 -0.13 -2.41 0c0,0 -0.48,0.94 -1.65,0.94 -1.16,0 -1.65,-0.94 -1.65,-0.94l-2.41 0 1.69 0.13 0.35 0.6 0.33 -0.22 0.26 0.29 -0.2 0.36 0.64 0.37 0.18 -0.37 0.41 0.1 0 0.47 0.41 0z"/>
    <path class="fil3" d="M8.52 6.79c-0.35,0.37 -0.82,0.51 -1.23,0.51 -0.42,0 -0.93,-0.16 -1.3,-0.5l0.45 -0.01c0.23,0.22 0.65,0.31 0.98,0.31 0.33,0 0.65,0.01 1.1,-0.31z"/>
    <path class="fil1" d="M5.89 6.81c0.23,0.39 0.74,0.85 1.55,0.85 0.82,0 1.36,-0.48 1.54,-0.87l-0.32 0c-0.05,0.05 -0.63,0.61 -1.28,0.61 -0.66,0 -1.04,-0.14 -1.49,-0.59z"/>
    <path class="fil3" d="M8.52 6.79c-0.35,0.37 -0.82,0.51 -1.23,0.51 -0.42,0 -0.93,-0.16 -1.3,-0.5l0.45 -0.01c0.23,0.22 0.65,0.31 0.98,0.31 0.33,0 0.65,0.01 1.1,-0.31z"/>
    <path class="fil1" d="M5.89 6.81c0.23,0.39 0.74,0.85 1.55,0.85 0.82,0 1.36,-0.48 1.54,-0.87l-0.32 0c-0.05,0.05 -0.63,0.61 -1.28,0.61 -0.66,0 -1.04,-0.14 -1.49,-0.59z"/>
    <path class="fil3" d="M8.52 6.79c-0.35,0.37 -0.82,0.51 -1.23,0.51 -0.42,0 -0.93,-0.16 -1.3,-0.5l0.45 -0.01c0.23,0.22 0.65,0.31 0.98,0.31 0.33,0 0.65,0.01 1.1,-0.31z"/>
   </g>
   <path class="fil5" d="M1.43 6.28l0.28 -0.47 -0.12 0.55 0.27 0 0.24 -1.18 -0.29 0 -0.25 0.5 -0.05 -0.5 -0.28 0 -0.25 1.18 0.27 0 0.11 -0.55 0.07 0.47zm1.02 -0.31l-0.04 0.18 -0.14 0c-0.01,0 -0.02,0 -0.02,-0.01l0.03 -0.15c0.01,-0.02 0.02,-0.02 0.03,-0.02l0.14 0zm0.03 -0.27c0.01,0 0.02,0.01 0.02,0.02l-0.02 0.09 -0.25 0c-0.1,0 -0.15,0.04 -0.17,0.12l-0.07 0.31c-0.01,0.08 0.03,0.12 0.12,0.12l0.2 0 0.07 -0.06 -0.02 0.06 0.25 0 0.16 -0.75c0.01,-0.08 -0.02,-0.12 -0.12,-0.12l-0.42 0 -0.09 0.21 0.34 0zm0.54 0.45l0.14 -0.66 -0.25 0 -0.18 0.87 1.04 0 0.18 -0.87 -0.25 0 -0.14 0.66 -0.14 0 0.13 -0.66 -0.25 0 -0.14 0.66 -0.14 0zm1.29 -0.66l-0.25 0 -0.18 0.87 0.25 0 0.01 -0.04 0.24 -0.49 -0.11 0.53 0.25 0 0.18 -0.87 -0.25 0 -0.01 0.04 -0.24 0.5 0.11 -0.54zm0.9 0l-0.08 0.38 -0.15 0 0.08 -0.38 -0.25 0 -0.18 0.87 0.25 0 0.07 -0.34 0.15 0 -0.08 0.34 0.26 0 0.18 -0.87 -0.25 0zm0.49 0.67c-0.01,0 -0.02,0 -0.02,-0.02l0.1 -0.44c0,-0.02 0.01,-0.02 0.02,-0.02l0.11 0c0.01,0 0.02,0 0.02,0.02l-0.1 0.44c0,0.02 -0.01,0.02 -0.02,0.02l-0.11 0zm-0.29 0.08c-0.01,0.08 0.03,0.12 0.12,0.12l0.37 0c0.09,0 0.14,-0.04 0.16,-0.12l0.13 -0.63c0.02,-0.08 -0.02,-0.12 -0.11,-0.12l-0.37 0c-0.09,0 -0.15,0.04 -0.16,0.12l-0.14 0.63zm1.13 -0.52c0,-0.01 0.01,-0.02 0.03,-0.02l0.26 0 -0.03 -0.21 -0.34 0c-0.08,0 -0.14,0.04 -0.15,0.12l-0.14 0.64c-0.01,0.07 0.03,0.11 0.11,0.11l0.36 0 0.09 -0.22 -0.26 0c-0.01,0 -0.02,0 -0.01,-0.02l0.08 -0.4zm0.38 0.64l0.26 0 0.14 -0.66 0.18 0 -0.02 -0.21 -0.49 0 -0.11 0.21 0.18 0 -0.14 0.66zm1.02 0c0.1,0 0.15,-0.04 0.17,-0.12l0.13 -0.63c0.02,-0.07 -0.02,-0.12 -0.11,-0.12l-0.51 0 -0.25 1.21 0.24 0 0.09 -0.4 0.04 0.06 0.2 0zm-0.21 -0.21l0.1 -0.46 0.12 0c0.02,0 0.03,0 0.02,0.02l-0.09 0.42c0,0.02 -0.01,0.02 -0.02,0.02l-0.13 0zm0.78 0.01c-0.01,0 -0.02,0 -0.02,-0.02l0.09 -0.44c0.01,-0.02 0.02,-0.02 0.03,-0.02l0.11 0c0.01,0 0.02,0 0.01,0.02l-0.09 0.44c0,0.02 -0.01,0.02 -0.03,0.02l-0.1 0zm-0.29 0.08c-0.01,0.08 0.02,0.12 0.12,0.12l0.36 0c0.1,0 0.15,-0.04 0.17,-0.12l0.13 -0.63c0.02,-0.08 -0.02,-0.12 -0.11,-0.12l-0.37 0c-0.1,0 -0.15,0.04 -0.17,0.12l-0.13 0.63zm1.06 -0.22l0.38 0 0.08 -0.41c0.02,-0.08 -0.03,-0.12 -0.11,-0.12l-0.36 0c-0.08,0 -0.14,0.04 -0.16,0.12l-0.13 0.64c-0.01,0.07 0.02,0.11 0.11,0.11l0.43 0 0.09 -0.22 -0.33 0c-0.02,0 -0.02,0 -0.02,-0.02l0.02 -0.1zm0.07 -0.32c0,-0.02 0.01,-0.02 0.02,-0.02l0.11 0c0.02,0 0.02,0 0.02,0.02l-0.04 0.18 -0.15 0 0.04 -0.18zm0.93 -0.21l-0.08 0.38 -0.15 0 0.08 -0.38 -0.25 0 -0.18 0.87 0.25 0 0.07 -0.34 0.14 0 -0.07 0.34 0.26 0 0.18 -0.87 -0.25 0zm0.61 0l-0.25 0 -0.18 0.87 0.25 0 0.01 -0.04 0.24 -0.49 -0.11 0.53 0.25 0 0.18 -0.87 -0.25 0 -0.01 0.04 -0.24 0.5 0.11 -0.54zm0.64 0.53l0.38 0 0.09 -0.41c0.01,-0.08 -0.03,-0.12 -0.11,-0.12l-0.37 0c-0.08,0 -0.14,0.04 -0.15,0.12l-0.14 0.64c-0.01,0.07 0.03,0.11 0.11,0.11l0.43 0 0.09 -0.22 -0.33 0c-0.01,0 -0.02,0 -0.02,-0.02l0.02 -0.1zm0.07 -0.32c0,-0.02 0.01,-0.02 0.03,-0.02l0.11 0c0.01,0 0.02,0 0.01,0.02l-0.03 0.18 -0.16 0 0.04 -0.18zm1.54 -0.52l-0.28 0 -0.1 0.51 -0.15 0 0.1 -0.51 -0.28 0 -0.24 1.18 0.28 0 0.1 -0.47 0.15 0 -0.1 0.47 0.28 0 0.24 -1.18zm0.83 0l-0.28 0 -0.11 0.51 -0.15 0 0.11 -0.51 -0.28 0 -0.25 1.18 0.28 0 0.1 -0.47 0.15 0 -0.1 0.47 0.28 0 0.25 -1.18z"/>
  </g>
 </g>
</svg>
