<?xml version="1.0" encoding="UTF-8"?>
<!DOCTYPE svg PUBLIC "-//W3C//DTD SVG 1.1//EN" "http://www.w3.org/Graphics/SVG/1.1/DTD/svg11.dtd">
<!-- Creator: CorelDRAW 2019 (64-Bit) -->
<svg xmlns="http://www.w3.org/2000/svg" xml:space="preserve" width="880px" height="349px" version="1.1" style="shape-rendering:geometricPrecision; text-rendering:geometricPrecision; image-rendering:optimizeQuality; fill-rule:evenodd; clip-rule:evenodd"
viewBox="0 0 880.29 349.46"
 xmlns:xlink="http://www.w3.org/1999/xlink">
 <defs>
  <style type="text/css">
   <![CDATA[
    .fil3 {fill:black}
    .fil0 {fill:gray}
    .fil1 {fill:#B92C25}
    .fil2 {fill:#E6E6E6}
    .fil4 {fill:black;fill-rule:nonzero}
   ]]>
  </style>
 </defs>
 <g id="Слой_x0020_1">
  <metadata id="CorelCorpID_0Corel-Layer"/>
  <g id="_2584335523952">
   <g>
    <path class="fil0" d="M545.57 115.49c-15.8,-26.12 -50.03,-57.06 -105.33,-57.06 -55.29,0 -92.15,32.32 -104,58.44l21.51 0c3.28,-3.3 42.99,-41.02 87.1,-40.97 44.1,0.05 70.43,9.35 100.72,39.59z"/>
    <path class="fil1" d="M439.66 0l-27.06 0 0 31.62 -27.65 6.88 -11.85 -24.75 -43.44 24.75 13.16 24.75 -17.11 19.25 -22.38 -15.13 -23.7 41.25 -114.53 8.25 163.24 0c0,0 32.91,-63.25 111.9,-63.25 78.99,0 111.9,63.25 111.9,63.25l163.25 0 -114.53 -8.25 -23.7 -41.25 -22.38 15.13 -17.11 -19.25 13.16 -24.75 -43.44 -24.75 -11.85 24.75 -27.65 -6.88 0 -31.62 -28.23 0z"/>
    <path class="fil2" d="M367.27 117.48c24.06,-25.53 55.39,-34.98 83.51,-34.98 28.12,0 63.19,11 87.94,34.28l-30.34 0.09c-15.78,-14.46 -44.44,-20.56 -66.83,-20.56 -22.38,0 -44,-0.83 -74.28,21.17z"/>
    <path class="fil0" d="M332.81 233.97c15.8,26.12 50.03,57.06 105.33,57.06 55.29,0 92.15,-32.31 104,-58.44l-21.51 0c-3.28,3.3 -42.99,41.02 -87.1,40.97 -44.1,-0.04 -70.43,-9.34 -100.72,-39.59z"/>
    <path class="fil3" d="M438.72 349.46l27.06 0 0 -31.62 27.65 -6.88 11.85 24.75 43.44 -24.75 -13.16 -24.74 17.11 -19.25 22.38 15.12 23.7 -41.25 114.54 -8.25 -163.25 0c0,0 -32.92,63.25 -111.9,63.25 -78.99,0 -111.9,-63.25 -111.9,-63.25l-163.25 0 114.53 8.25 23.7 41.25 22.38 -15.12 17.12 19.25 -13.17 24.74 43.44 24.75 11.85 -24.75 27.65 6.88 0 31.62 28.23 0z"/>
    <path class="fil2" d="M511.11 231.98c-24.06,25.53 -55.39,34.99 -83.51,34.99 -28.12,0 -63.19,-11 -87.94,-34.29l30.34 -0.09c15.78,14.46 44.45,20.57 66.82,20.57 22.38,0 44.01,0.82 74.29,-21.18z"/>
    <path class="fil0" d="M332.81 233.97c15.8,26.12 50.03,57.06 105.33,57.06 55.29,0 92.15,-32.31 104,-58.44l-21.51 0c-3.28,3.3 -42.99,41.02 -87.1,40.97 -44.1,-0.04 -70.43,-9.34 -100.72,-39.59z"/>
    <path class="fil2" d="M511.11 231.98c-24.06,25.53 -55.39,34.99 -83.51,34.99 -28.12,0 -63.19,-11 -87.94,-34.29l30.34 -0.09c15.78,14.46 44.45,20.57 66.82,20.57 22.38,0 44.01,0.82 74.29,-21.18z"/>
    <path class="fil0" d="M332.81 233.97c15.8,26.12 50.03,57.06 105.33,57.06 55.29,0 92.15,-32.31 104,-58.44l-21.51 0c-3.28,3.3 -42.99,41.02 -87.1,40.97 -44.1,-0.04 -70.43,-9.34 -100.72,-39.59z"/>
    <path class="fil2" d="M511.11 231.98c-24.06,25.53 -55.39,34.99 -83.51,34.99 -28.12,0 -63.19,-11 -87.94,-34.29l30.34 -0.09c15.78,14.46 44.45,20.57 66.82,20.57 22.38,0 44.01,0.82 74.29,-21.18z"/>
   </g>
   <polygon class="fil4" points="30.91,197.39 49.35,165.56 41.5,203.1 59.56,203.1 76.24,123.3 56.52,123.3 39.33,157.11 36.28,123.3 16.68,123.3 0,203.1 18.06,203.1 25.91,165.56 "/>
   <path id="1" class="fil4" d="M99.42 176.65l-2.61 12.51 -9.23 0c-0.89,0 -1.49,-0.22 -1.28,-1.21l2.09 -9.98c0.2,-0.99 0.91,-1.32 1.81,-1.32l9.22 0zm2.27 -18.22c0.9,0 1.47,0.33 1.27,1.31l-1.29 6.15 -17.16 0c-6.41,0 -10.06,2.74 -11.2,8.23l-4.43 21.19c-1.08,5.16 1.96,7.79 7.46,7.79l13.58 0 4.8 -3.95 -0.83 3.95 16.78 0 10.56 -50.49c1.15,-5.49 -1.48,-8.23 -7.89,-8.23l-28.31 0 -6.27 14.05 22.93 0z"/>
   <polygon id="2" class="fil4" points="138.4,188.72 147.67,144.38 130.63,144.38 118.36,203.1 188.94,203.1 201.21,144.38 184.18,144.38 174.91,188.72 165.17,188.72 174.44,144.38 157.41,144.38 148.14,188.72 "/>
   <polygon id="3" class="fil4" points="225.94,144.38 208.9,144.38 196.63,203.1 213.66,203.1 214.17,200.69 230.41,167.1 222.89,203.1 239.8,203.1 252.07,144.38 235.16,144.38 234.63,146.9 218.39,180.49 "/>
   <polygon id="4" class="fil4" points="286.53,144.38 281.2,169.84 271.47,169.84 276.79,144.38 259.75,144.38 247.48,203.1 264.52,203.1 269.27,180.38 279,180.38 274.25,203.1 291.29,203.1 303.56,144.38 "/>
   <path id="5" class="fil4" d="M320.09 189.71c-0.9,0 -1.49,-0.22 -1.28,-1.21l6.3 -30.18c0.21,-0.99 0.92,-1.32 1.82,-1.32l7.17 0c0.9,0 1.47,0.33 1.26,1.32l-6.31 30.18c-0.2,0.99 -0.89,1.21 -1.79,1.21l-7.17 0zm-19.4 5.16c-1.14,5.49 1.36,8.23 7.76,8.23l24.85 0c6.41,0 10.06,-2.74 11.2,-8.23l8.83 -42.26c1.15,-5.49 -1.35,-8.23 -7.75,-8.23l-24.85 0c-6.41,0 -10.06,2.74 -11.2,8.23l-8.84 42.26z"/>
   <path id="6" class="fil4" d="M376.95 159.74c0.21,-0.98 0.92,-1.31 1.81,-1.31l17.55 0 -1.55 -14.05 -22.93 0c-5.5,0 -9.59,2.41 -10.74,7.9l-9.04 43.25c-0.99,4.72 1.62,7.57 7.26,7.57l24.21 0 6.42 -14.82 -17.42 0c-0.89,0 -1.47,-0.33 -1.26,-1.31l5.69 -27.23z"/>
   <polygon id="7" class="fil4" points="402.99,203.1 420.54,203.1 429.87,158.43 442.04,158.43 440.5,144.38 407.57,144.38 400.15,158.43 412.32,158.43 "/>
   <path id="8" class="fil4" d="M472.16 203.1c6.4,0 10.05,-2.74 11.2,-8.23l8.92 -42.7c1.03,-4.94 -1.57,-7.79 -7.34,-7.79l-34.84 0 -17.09 81.77 16.78 0 5.65 -27 3.14 3.95 13.58 0zm-14.64 -13.94l6.61 -31.61 8.71 0c0.9,0 1.49,0.22 1.29,1.21l-6.08 29.08c-0.21,0.99 -0.92,1.32 -1.82,1.32l-8.71 0z"/>
   <path id="9" class="fil4" d="M510.44 189.71c-0.9,0 -1.49,-0.22 -1.28,-1.21l6.3 -30.18c0.21,-0.99 0.92,-1.32 1.82,-1.32l7.17 0c0.9,0 1.47,0.33 1.26,1.32l-6.31 30.18c-0.2,0.99 -0.89,1.21 -1.79,1.21l-7.17 0zm-19.4 5.16c-1.14,5.49 1.36,8.23 7.76,8.23l24.85 0c6.41,0 10.05,-2.74 11.2,-8.23l8.83 -42.26c1.15,-5.49 -1.35,-8.23 -7.75,-8.23l-24.85 0c-6.41,0 -10.06,2.74 -11.2,8.23l-8.84 42.26z"/>
   <path id="10" class="fil4" d="M562.69 179.94l25.62 0 5.78 -27.66c1.15,-5.49 -1.93,-7.9 -7.44,-7.9l-24.47 0c-5.5,0 -9.59,2.41 -10.74,7.9l-9.04 43.25c-0.99,4.72 1.62,7.57 7.25,7.57l29.08 0 6.43 -14.82 -22.67 0c-0.9,0 -1.47,-0.33 -1.26,-1.31l1.46 -7.03zm4.52 -21.62c0.21,-0.99 0.92,-1.32 1.82,-1.32l7.43 0c0.89,0 1.46,0.33 1.26,1.32l-2.55 12.18 -10.5 0 2.54 -12.18z"/>
   <polygon id="11" class="fil4" points="630.2,144.38 624.88,169.84 615.15,169.84 620.47,144.38 603.43,144.38 591.16,203.1 608.19,203.1 612.94,180.38 622.68,180.38 617.93,203.1 634.97,203.1 647.24,144.38 "/>
   <polygon id="12" class="fil4" points="671.96,144.38 654.92,144.38 642.65,203.1 659.69,203.1 660.19,200.69 676.43,167.1 668.91,203.1 685.82,203.1 698.09,144.38 681.18,144.38 680.66,146.9 664.41,180.49 "/>
   <path id="13" class="fil4" d="M715.38 179.94l25.62 0 5.78 -27.66c1.15,-5.49 -1.93,-7.9 -7.44,-7.9l-24.47 0c-5.51,0 -9.6,2.41 -10.74,7.9l-9.04 43.25c-0.99,4.72 1.62,7.57 7.25,7.57l29.08 0 6.43 -14.82 -22.67 0c-0.9,0 -1.47,-0.33 -1.27,-1.31l1.47 -7.03zm4.52 -21.62c0.21,-0.99 0.92,-1.32 1.81,-1.32l7.43 0c0.9,0 1.47,0.33 1.27,1.32l-2.55 12.18 -10.5 0 2.54 -12.18z"/>
   <polygon id="14" class="fil4" points="824.57,123.3 805.61,123.3 798.46,157.55 788.34,157.55 795.49,123.3 776.54,123.3 759.86,203.1 778.82,203.1 785.47,171.27 795.59,171.27 788.93,203.1 807.89,203.1 "/>
   <polygon id="15" class="fil4" points="880.29,123.3 861.33,123.3 854.18,157.55 844.06,157.55 851.22,123.3 832.26,123.3 815.58,203.1 834.54,203.1 841.19,171.27 851.31,171.27 844.66,203.1 863.61,203.1 "/>
  </g>
 </g>
</svg>
