<?xml version="1.0" encoding="UTF-8"?>
<!DOCTYPE svg PUBLIC "-//W3C//DTD SVG 1.1//EN" "http://www.w3.org/Graphics/SVG/1.1/DTD/svg11.dtd">
<!-- Creator: CorelDRAW 2019 (64-Bit) -->
<svg xmlns="http://www.w3.org/2000/svg" xml:space="preserve" width="162px" height="23px" version="1.1" style="shape-rendering:geometricPrecision; text-rendering:geometricPrecision; image-rendering:optimizeQuality; fill-rule:evenodd; clip-rule:evenodd"
viewBox="0 0 22.41 3.13"
 xmlns:xlink="http://www.w3.org/1999/xlink">
 <defs>
  <style type="text/css">
   <![CDATA[
    .fil0 {fill:#B92C25;fill-rule:nonzero}
   ]]>
  </style>
 </defs>
 <g id="Слой_x0020_1">
  <metadata id="CorelCorpID_0Corel-Layer"/>
  <path class="fil0" d="M0 1.56l3.65 -1.56c-0.24,0.48 -0.37,0.95 -0.39,1.42l0 0.29c0.02,0.47 0.15,0.94 0.39,1.42l-3.65 -1.57zm10.12 -1.36l1.24 0 -0.19 0.43 -0.87 0 -0.95 2.07 -0.37 0 1.14 -2.5zm1.5 0l1.28 0 -1.14 2.5 -0.37 0 0.95 -2.07 -0.55 0 -0.49 1.06c-0.14,0.31 -0.24,0.52 -0.31,0.64 -0.07,0.13 -0.15,0.22 -0.24,0.29 -0.09,0.07 -0.2,0.1 -0.32,0.1 -0.04,0 -0.12,-0.01 -0.23,-0.02l0.18 -0.39 0.08 0c0.08,0 0.14,-0.01 0.18,-0.04 0.04,-0.03 0.08,-0.1 0.13,-0.21l0.2 -0.43 0.65 -1.43zm2.17 2.5l-0.4 0 0.1 -0.56 -0.73 0 -0.41 0.56 -0.4 0 1.86 -2.5 0.39 0 -0.41 2.5zm-0.22 -0.99l0.16 -0.92 -0.67 0.92 0.51 0zm1.56 -1.51l0.73 0c0.15,0 0.25,0.01 0.32,0.03 0.06,0.02 0.11,0.05 0.14,0.1 0.03,0.05 0.05,0.12 0.05,0.21 -0.01,0.09 -0.03,0.18 -0.08,0.29 -0.05,0.12 -0.13,0.23 -0.22,0.32 -0.09,0.1 -0.18,0.17 -0.28,0.22 0.09,0.05 0.14,0.12 0.15,0.23 0.01,0.11 -0.02,0.23 -0.08,0.38 -0.06,0.11 -0.13,0.22 -0.21,0.33 -0.09,0.11 -0.18,0.19 -0.28,0.26 -0.1,0.06 -0.2,0.1 -0.3,0.12 -0.07,0.01 -0.22,0.01 -0.46,0.01l-0.62 0 1.14 -2.5zm0.18 0.42l-0.26 0.58 0.24 0c0.14,0 0.24,-0.01 0.27,-0.01 0.07,-0.01 0.13,-0.04 0.19,-0.09 0.06,-0.05 0.11,-0.12 0.15,-0.2 0.03,-0.07 0.04,-0.14 0.04,-0.18 -0.01,-0.05 -0.05,-0.08 -0.1,-0.09 -0.04,-0.01 -0.14,-0.01 -0.32,-0.01l-0.21 0zm-0.45 0.99l-0.31 0.67 0.35 0c0.13,0 0.22,0 0.26,-0.01 0.06,-0.02 0.12,-0.05 0.18,-0.1 0.06,-0.06 0.11,-0.13 0.15,-0.22 0.03,-0.07 0.05,-0.14 0.04,-0.19 0,-0.05 -0.02,-0.09 -0.06,-0.11 -0.04,-0.03 -0.14,-0.04 -0.31,-0.04l-0.3 0zm0.98 1.09l1.14 -2.5 0.37 0 -0.45 0.99 0.72 0 0.45 -0.99 0.37 0 -1.14 2.5 -0.37 0 0.5 -1.09 -0.72 0 -0.5 1.09 -0.37 0zm2.8 -2.5l0.42 0 -0.17 1.3 0.96 -1.3 0.38 0 -1.48 1.9c-0.17,0.21 -0.31,0.37 -0.43,0.48 -0.11,0.1 -0.23,0.16 -0.34,0.16 -0.11,0 -0.19,-0.01 -0.24,-0.03l0.17 -0.38c0.05,0.01 0.1,0.01 0.14,0.01 0.08,0 0.15,-0.02 0.21,-0.07 0.06,-0.04 0.14,-0.13 0.23,-0.27l0.15 -1.8zm1.78 0l0.37 0 -0.48 1.05 0.3 0c0.16,-0.31 0.36,-0.57 0.59,-0.78 0.23,-0.21 0.48,-0.31 0.74,-0.31 0.26,0 0.41,0.11 0.45,0.33 0.05,0.23 -0.02,0.55 -0.21,0.96 -0.12,0.27 -0.26,0.5 -0.41,0.7 -0.16,0.19 -0.32,0.34 -0.48,0.44 -0.17,0.11 -0.34,0.16 -0.52,0.16 -0.18,0 -0.3,-0.04 -0.37,-0.12 -0.08,-0.07 -0.11,-0.2 -0.11,-0.37 0,-0.17 0.04,-0.37 0.13,-0.59l-0.3 0 -0.47 1.03 -0.37 0 1.14 -2.5zm0.47 1.26c-0.13,0.27 -0.19,0.49 -0.18,0.64 0.01,0.15 0.09,0.23 0.24,0.23 0.15,0 0.3,-0.08 0.44,-0.23 0.14,-0.15 0.28,-0.37 0.42,-0.67 0.13,-0.29 0.18,-0.5 0.16,-0.63 -0.03,-0.14 -0.11,-0.21 -0.24,-0.21 -0.14,0 -0.27,0.07 -0.42,0.21 -0.14,0.13 -0.29,0.35 -0.42,0.66zm-16.48 1.25l1.13 -2.47 0.34 0 -0.44 0.97 0.67 0 0.44 -0.97 0.35 0 -1.13 2.47 -0.34 0 0.49 -1.08 -0.67 0 -0.49 1.08 -0.35 0zm3.26 0l-0.38 0 0.11 -0.56 -0.68 0 -0.4 0.56 -0.36 0 1.78 -2.47 0.37 0 -0.44 2.47zm-0.19 -0.98l0.18 -0.91 -0.65 0.91 0.47 0z"/>
 </g>
</svg>
